<svg xmlns="http://www.w3.org/2000/svg" width="2458" height="1552.883" viewBox="0 0 2458 1552.883">
  <g id="Group_2" data-name="Group 2" transform="translate(310 298.883)">
    <g id="sportive-car" transform="translate(-290.001 -128.672)">
      <g id="Group_1" data-name="Group 1" transform="translate(0.001 34.672)">
        <path id="Path_7" data-name="Path 7" d="M2413.441,222.231a15.118,15.118,0,0,0-11.76-5.673H2246.143a14.952,14.952,0,0,0-13.927,9.569l-9.91,25.444S1783.449,91.577,1685.569,57.538c-75.894-26.394-285.34-24.446-408.47-20.672a524.437,524.437,0,0,0-177.768,36.912C995.68,115.2,822.173,186.463,732.911,234.089c-212.2,4.48-410.929,52.714-454.975,73.995-44.022,21.3-139.127,106.5-139.127,106.5l-115.022,60.6A44.627,44.627,0,0,0,.12,517.943l6.891,92.914a44.6,44.6,0,0,0,37.813,40.808l273.993,41.319,22.547-.925a210.949,210.949,0,0,1-25.931-76.332,207.414,207.414,0,0,1-2.094-26.783c-1.12-117.725,93.742-214.437,211.491-215.581,118.723,0,214.485,94.886,215.581,211.539.049,6.111-.292,12.126-.706,18.164a210.635,210.635,0,0,1-19.381,73.289l1033.592-2.143a209.54,209.54,0,0,1-16.825-58.461A203.181,203.181,0,0,1,1735,588.967c-1.12-117.725,93.742-214.437,211.491-215.581,118.7,0,214.51,94.886,215.581,211.539.049,6.111-.292,12.126-.73,18.164a210.653,210.653,0,0,1-6.939,40.078l9.618-.755L2349.94,586.63a44.625,44.625,0,0,0,31.482-37.35l16.606-138.567a81.36,81.36,0,0,0-10.275-50.3l-31.19-54.3,48.186-36.6a15.36,15.36,0,0,0,5.576-8.522l6.087-25.907A15.957,15.957,0,0,0,2413.441,222.231Zm-836,25.542L1106.2,261.627s-.073-58.12-69.734-65.351l111.1-65.814a254.119,254.119,0,0,1,132.188-35.573c85,.657,225.856,2.24,309.006,5.795a42.9,42.9,0,0,1,35.865,63.355C1601.372,206.843,1577.437,247.772,1577.437,247.772Z" transform="translate(-0.001 -34.672)"/>
      </g>
    </g>
    <g id="customer-support" transform="translate(318.625 54.999)">
      <path id="Path_2" data-name="Path 2" d="M383.038,812.99l432.493-432.5a19.078,19.078,0,0,1,18.11-5.027,189.7,189.7,0,0,0,236.77-184.756c0-3.58-.1-7.187-.338-10.826L969.485,280.462a19.063,19.063,0,0,1-19.507,4.606L835.564,246.926A19.036,19.036,0,0,1,823.5,234.878L785.367,120.465a19.04,19.04,0,0,1,4.6-19.511L890.56.367a189.759,189.759,0,0,0-195.607,236.45,19.059,19.059,0,0,1-5.012,18.12L257.455,687.407a19.246,19.246,0,0,1-18.115,5.024,187.866,187.866,0,0,0-46.1-5.932A191.973,191.973,0,1,0,378,831.1,19.094,19.094,0,0,1,383.038,812.99ZM239.661,953.463H146.845l-45.777-76.269,45.777-76.288h92.816l45.767,76.288Zm73.593-223.239L732.765,310.707l26.956,26.964L340.212,757.186Zm0,0" transform="translate(403.387 -353.883) rotate(45)" fill="#4b4b4b"/>
      <path id="Path_8" data-name="Path 8" d="M383.038,812.99l432.493-432.5a19.078,19.078,0,0,1,18.11-5.027,189.7,189.7,0,0,0,236.77-184.756c0-3.58-.1-7.187-.338-10.826L969.485,280.462a19.063,19.063,0,0,1-19.507,4.606L835.564,246.926A19.036,19.036,0,0,1,823.5,234.878L785.367,120.465a19.04,19.04,0,0,1,4.6-19.511L890.56.367a189.759,189.759,0,0,0-195.607,236.45,19.059,19.059,0,0,1-5.012,18.12L257.455,687.407a19.246,19.246,0,0,1-18.115,5.024,187.866,187.866,0,0,0-46.1-5.932A191.973,191.973,0,1,0,378,831.1,19.094,19.094,0,0,1,383.038,812.99ZM239.661,953.463H146.845l-45.777-76.269,45.777-76.288h92.816l45.767,76.288Zm73.593-223.239L732.765,310.707l26.956,26.964L340.212,757.186Zm0,0" transform="translate(855.387 -353.883) rotate(45)" fill="#4b4b4b"/>
    </g>
    <rect id="Rectangle_1" data-name="Rectangle 1" width="1051" height="257" transform="translate(415 546)" fill="#fff"/>
    <rect id="Rectangle_2" data-name="Rectangle 2" width="940" height="125" transform="translate(448 244)"/>
    <text id="CarCare" transform="translate(-310 1126)" fill="#202020" font-size="579" font-family="CenturyGothic, Century Gothic"><tspan x="0" y="0">CarCare</tspan></text>
  </g>
</svg>
