<svg xmlns="http://www.w3.org/2000/svg" width="179.006" height="147.131" viewBox="0 0 179.006 147.131">
  <g id="fuel-counter" transform="translate(0 -15.938)">
    <path id="Path_4" data-name="Path 4" d="M69.246,97.982a5.9,5.9,0,0,1-5.9-5.907c0-3.27,5.9-13.61,5.9-13.61s5.9,10.347,5.9,13.61A5.9,5.9,0,0,1,69.246,97.982ZM64.8,73.894H58.034V109.97H46.3v5.549h6.826v5.1H0v-5.1H6.832V58.392H46.3v46.47h6.623V71.346l.03-2.56H67.3l3.962,5.09-4.028,3.139ZM37.55,67.235H15.574v16.4H37.55Zm72.783,11.617a16.843,16.843,0,0,1,1.784,2.846,16.221,16.221,0,0,1,1.122,3.168L149.7,63.546Zm-17.089.114a11.883,11.883,0,1,0,16.039,5.042A11.88,11.88,0,0,0,93.244,78.966Zm11.618-63.028H95.548V40.4h9.314ZM95.553,163.069h9.314V138.6H95.553Zm58.989-78.226v9.32h24.464v-9.32ZM130.931,47.407l3.294,3.294,17.3-17.3-3.3-3.294Zm0,84.192,17.3,17.3,3.294-3.294-17.292-17.3ZM74.043,152.346H86v-4.212H74.043v-5.2H86.937V138.6H68.929v24.464H87.5v-4.35H74.043ZM74.61,40.4V30.055H85.326V25.849H74.61V20.282h12.3V15.938H69.508V40.4h5.1Z" fill="#fff"/>
  </g>
</svg>
