<svg xmlns="http://www.w3.org/2000/svg" width="62" height="62" viewBox="0 0 62 62">
  <g id="car-service" transform="translate(-1 -1)">
    <path id="Path_5" data-name="Path 5" d="M1,61v2H63V61H1Z" fill="#fff"/>
    <path id="Path_6" data-name="Path 6" d="M17,49a4,4,0,1,0,4,4A4,4,0,0,0,17,49Zm0,6a2,2,0,1,1,2-2A2,2,0,0,1,17,55Z" fill="#fff"/>
    <path id="Path_7" data-name="Path 7" d="M47,49a4,4,0,1,0,4,4A4,4,0,0,0,47,49Zm0,6a2,2,0,1,1,2-2A2,2,0,0,1,47,55Z" fill="#fff"/>
    <path id="Path_8" data-name="Path 8" d="M62.447,40.1l-7.794-3.9-1.07-1.39A18.044,18.044,0,1,0,27.5,23.162a6.965,6.965,0,0,0-4.1,2.57l-7.48,9.723L2.731,21.317,1.269,22.682,7.763,29.64,5.146,38.359A6.021,6.021,0,0,0,1,44.042V51a3,3,0,0,0,3,3H9.069a7.993,7.993,0,0,0,15.862,0H39.07a7.993,7.993,0,0,0,15.862,0H60a3,3,0,0,0,3-3V41A1,1,0,0,0,62.447,40.1ZM61,48H59V40.618l2,1ZM45,3A16,16,0,1,1,29,19,16.019,16.019,0,0,1,45,3Zm2.08,34H36V34.564a17.685,17.685,0,0,0,11,2.318ZM30.044,29A18.116,18.116,0,0,0,34,33.216V37H22.92l5-7.147A2,2,0,0,1,29.562,29ZM14.065,36.392,7.4,37.821l1.947-6.488ZM3,44H5v2H3V44.042c0-.014,0-.028,0-.042ZM17,59a6,6,0,1,1,6-6A6.006,6.006,0,0,1,17,59Zm30,0a6,6,0,1,1,6-6A6.006,6.006,0,0,1,47,59Zm13-7H54.931a7.993,7.993,0,0,0-15.862,0H24.931A7.993,7.993,0,0,0,9.069,52H4a1,1,0,0,1-1-1V48H6a1,1,0,0,0,1-1V43a1,1,0,0,0-1-1H3.575a4,4,0,0,1,2.587-1.869L16.21,37.978a1,1,0,0,0,.583-.368l8.2-10.658a4.981,4.981,0,0,1,3.089-1.869,18.185,18.185,0,0,0,.846,1.975,4,4,0,0,0-2.642,1.649l-6.1,8.721A1,1,0,0,0,21,39H49a1,1,0,0,0,.82-1.573l-.653-.933a17.978,17.978,0,0,0,2.56-.81l1.481,1.926a.991.991,0,0,0,.345.285L57,39.618V49a1,1,0,0,0,1,1h3v1A1,1,0,0,1,60,52Z" fill="#fff"/>
    <path id="Path_9" data-name="Path 9" d="M32,41h4v2H32Z" fill="#fff"/>
    <path id="Path_10" data-name="Path 10" d="M46,41h4v2H46Z" fill="#fff"/>
    <path id="Path_11" data-name="Path 11" d="M38,31H52a3,3,0,0,0,3-3V17a1,1,0,0,0-.293-.707l-5-5A1,1,0,0,0,49,11H44V6a1,1,0,0,0-1-1H39a1,1,0,0,0-1,1v5.424A5,5,0,0,0,35,16V28A3,3,0,0,0,38,31ZM40,7h2v4H40Zm-3,9a3,3,0,0,1,3-3h8.586L53,17.414V28a1,1,0,0,1-1,1H38a1,1,0,0,1-1-1Z" fill="#fff"/>
    <path id="Path_12" data-name="Path 12" d="M45,24h5a1,1,0,0,0,1-1V19a1,1,0,0,0-.293-.707l-3-3A1,1,0,0,0,47,15H45a1,1,0,0,0-1,1v7A1,1,0,0,0,45,24Zm1-7h.586L49,19.414V22H46Z" fill="#fff"/>
    <path id="Path_13" data-name="Path 13" d="M11,25a4,4,0,0,0,4-4V20a1,1,0,0,0-.1-.447l-3-6a1.041,1.041,0,0,0-1.789,0l-3,6A.99.99,0,0,0,7,20v1a4,4,0,0,0,4,4ZM9,20.236l2-4,2,4V21a2,2,0,0,1-4,0Z" fill="#fff"/>
  </g>
</svg>
