<svg height="414pt" viewBox="0 -74 414.55345 414" width="414pt" xmlns="http://www.w3.org/2000/svg"><path d="m286.71875 126.570312c0 69.75-56.542969 126.292969-126.292969 126.292969s-126.292969-56.542969-126.292969-126.292969 56.542969-126.292968 126.292969-126.292968 126.292969 56.542968 126.292969 126.292968zm0 0" fill="#e7d1c4"/><path d="m136.347656 143.269531h27.492188v41.328125h-27.492188zm0 0" fill="#b5a19c"/><path d="m163.839844 191.421875h-27.492188c-3.773437 0-6.828125-3.050781-6.828125-6.824219v-41.328125c0-3.773437 3.054688-6.828125 6.828125-6.828125h27.492188c3.773437 0 6.824218 3.054688 6.824218 6.828125v41.328125c0 3.773438-3.050781 6.824219-6.824218 6.824219zm-20.667969-13.652344h13.839844v-27.671875h-13.839844zm0 0" fill="#4c241d"/><path d="m181.183594 143.269531h-61.996094c-5.5 0-9.960938-4.460937-9.960938-9.964843 0-5.503907 4.460938-9.964844 9.960938-9.964844h61.996094c5.5 0 9.960937 4.460937 9.960937 9.964844 0 5.503906-4.460937 9.964843-9.960937 9.964843zm0 0" fill="#b5a19c"/><path d="m181.1875 150.097656h-62c-9.253906 0-16.789062-7.535156-16.789062-16.792968 0-9.253907 7.535156-16.789063 16.789062-16.789063h62c9.25 0 16.785156 7.535156 16.785156 16.789063 0 9.257812-7.535156 16.792968-16.785156 16.792968zm-62-19.929687c-1.730469 0-3.136719 1.40625-3.136719 3.136719 0 1.730468 1.40625 3.136718 3.136719 3.136718h62c1.726562 0 3.132812-1.40625 3.132812-3.136718 0-1.730469-1.40625-3.136719-3.132812-3.136719zm0 0" fill="#4c241d"/><path d="m88.746094 177.769531h107.382812l19.925782 18.453125 139.484374-59.78125-99.632812 123.25h-167.160156zm0 0" fill="#6b4f5b"/><g fill="#4c241d"><path d="m255.90625 266.515625h-167.160156c-3.773438 0-6.828125-3.050781-6.828125-6.824219v-81.921875c0-3.773437 3.054687-6.824219 6.828125-6.824219h107.378906c1.722656 0 3.375.644532 4.640625 1.816407l16.675781 15.441406 135.414063-58.035156c2.859375-1.234375 6.222656-.351563 8.125 2.15625 1.898437 2.5 1.839843 5.972656-.132813 8.414062l-99.632812 123.246094c-1.296875 1.597656-3.25 2.53125-5.308594 2.53125zm-160.332031-13.652344h157.070312l80.273438-99.300781-114.179688 48.933594c-2.472656 1.066406-5.347656.566406-7.324219-1.265625l-17.960937-16.632813h-97.878906zm0 0"/><path d="m375.464844 163.195312c-1.746094 0-3.492188-.664062-4.824219-2l-19.929687-19.925781c-2.664063-2.664062-2.664063-6.988281 0-9.652343 2.667968-2.667969 6.988281-2.667969 9.652343 0l19.929688 19.925781c2.664062 2.667969 2.664062 6.988281 0 9.652343-1.332031 1.335938-3.082031 2-4.828125 2zm0 0"/><path d="m85.039062 209.503906c-.71875 0-1.460937-.113281-2.179687-.359375l-78.214844-26.378906c-1.777343-.601563-3.230469-1.902344-4.015625-3.609375-.789062-1.699219-.835937-3.652344-.140625-5.390625l19.925781-49.820313c1.039063-2.59375 3.546876-4.292968 6.339844-4.292968 63.898438 0 82.132813 50.539062 82.3125 51.050781 1.234375 3.566406-.660156 7.453125-4.21875 8.6875-3.566406 1.222656-7.449218-.644531-8.679687-4.207031-.636719-1.777344-14.730469-39.59375-64.835938-41.777344l-15.484375 38.730469 71.371094 24.074219c3.574219 1.199218 5.496094 5.074218 4.289062 8.644531-.960937 2.855469-3.621093 4.648437-6.46875 4.648437zm0 0"/></g><path d="m407.726562 230.035156c0 15.742188-12.765624 28.503906-28.507812 28.503906s-28.507812-12.761718-28.507812-28.503906c0-15.746094 28.507812-52.265625 28.507812-52.265625s28.507812 36.519531 28.507812 52.265625zm0 0" fill="#ffce56"/><path d="m379.21875 265.371094c-19.480469 0-35.332031-15.855469-35.332031-35.339844 0-17.222656 24.953125-50.054688 29.953125-56.460938 2.585937-3.320312 8.171875-3.320312 10.761718 0 5 6.40625 29.953126 39.238282 29.953126 56.460938-.003907 19.484375-15.855469 35.339844-35.335938 35.339844zm0-76.207032c-10.308594 14.300782-21.679688 33.046876-21.679688 40.867188 0 11.957031 9.726563 21.683594 21.679688 21.683594s21.679688-9.726563 21.679688-21.683594c0-7.820312-11.375-26.566406-21.679688-40.867188zm0 0" fill="#4c241d"/></svg>